<?xml version="1.0" encoding="UTF-8"?>
<svg id="Layer_1" data-name="Layer 1" xmlns="http://www.w3.org/2000/svg" viewBox="0 0 1079.8 1079.9">
  <defs>
    <style>
      .cls-1 {
        fill: #fffffe;
      }

      .cls-2 {
        fill: #ffb129;
      }

      .cls-3 {
        fill: #ffb12a;
      }

      .cls-4 {
        fill: #c69d68;
      }
    </style>
  </defs>
  <path class="cls-1" d="M637.96,1079.9H0V0H1079.8V1079.9h-441.84M350.85,501.69c-.65,4.4-1.59,8.77-1.9,13.19-1.39,19.64-1.1,39.22,2.96,58.58,4.89,23.29,13.28,45.16,27.02,65.49,41.14,62.59,113.94,95.13,190.27,83.06,40.03-6.33,74.75-23.85,103.06-52.68,44.25-45.06,62.29-99.49,53.5-162.07-6.46-45.97-27.65-84.9-63.17-114.6-57.53-48.1-122.64-58.31-193.12-33.59-22.82,8.01-43.07,20.81-61.15,38-2.38,2.32-4.81,4.58-7.12,6.97-12.24,12.7-22.97,26.61-31.07,42.25-8.92,17.24-15.65,35.38-19.28,55.38m600.07,200.78c-19.34-25.99-42.9-46.63-73.15-59.3-23.94-10.03-48.61-17.12-74.37-20.19-19.7-2.35-39.21-1.62-58.24,4.71-27.53,9.15-38.95,31.25-30.29,58.9,4.31,13.75,12.23,25.43,21.52,36.23,17.81,20.71,39.59,36.39,63.12,49.92,26.29,15.11,54.25,24.27,84.76,24.95,35.43,.79,69.42-6.24,102.48-18.54,3.2-1.19,3.64-2.64,2.54-5.57-9.49-25.22-21.78-48.92-38.38-71.1M205.93,276.46c-26.15-2.11-51.9,.53-77.21,7.14-12.97,3.38-25.71,7.62-38.82,11.55,.68,2.41,.95,3.68,1.4,4.88,10.7,28.78,25.2,55.43,44.67,79.25,16.76,20.51,36.45,37.48,60.79,48.41,30.64,13.77,62.5,22.88,96.32,23.77,15.56,.41,30.95-1.03,45.56-7.02,24.99-10.24,34.69-29.88,27.46-55.87-4.39-15.8-13.82-28.7-24.52-40.71-17.01-19.1-37.47-33.81-59.57-46.44-23.39-13.37-47.91-23.23-76.08-24.95m385.51,511.47c-5.9-11.51-13.24-21.93-23.19-30.34-17.68-14.94-37.68-15.5-56.11-1.44-13.92,10.62-22.5,25.2-29.43,40.86-11.61,26.21-16.57,53.92-18.58,82.34-1.88,26.67,1.5,52.43,11.5,77.33,10.35,25.77,25.2,48.75,42.89,69.95,6.35,7.61,13.46,14.58,21.4,23.11,1.46-2.25,2.2-3.8,3.3-5.03,7.28-8.22,14.98-16.08,21.9-24.59,17.66-21.74,31.74-45.61,40.93-72.17,8.19-23.67,10.31-48.01,8.04-72.89-2.74-30.06-8.39-59.31-22.66-87.12m-155.59-432.5c11.48-5.64,18.3-15.09,22.1-27.02,4.92-15.42,4.86-31.09,2.64-46.94-3.74-26.72-13.19-51.47-25.38-75.33-12.91-25.27-29.76-47.21-52.93-64.04-29.71-21.59-62.95-34.96-98.4-43.52-4.64-1.12-6.05,.02-7.03,4.4-5.97,26.65-8.41,53.6-6.57,80.82,1.38,20.5,5.17,40.62,13.38,59.6,13.58,31.44,34.75,57.37,59.73,80.33,13.92,12.8,29.32,23.6,47.15,30.38,14.63,5.56,29.48,8.38,45.3,1.32m192.66-117.45c-5.95,15.96-10.34,32.35-12.02,49.31-1.66,16.73-1.17,33.32,6.56,48.82,6.55,13.14,17.04,20.97,31.72,22.97,15.4,2.1,29.37-2.72,42.69-9.44,24.95-12.6,44.87-31.38,62.67-52.59,20.59-24.54,36.93-51.28,43.32-83.23,5.61-28.04,5.91-56.21,2.09-84.45-1.42-10.48-3.53-20.88-5.4-31.76-2.78,.49-4.55,.73-6.29,1.12-22.02,4.92-43.2,12.3-63.41,22.29-23.93,11.82-45.67,26.71-63.04,47.28-17.3,20.48-28.89,44.2-38.88,69.67m347.64,97.6c4.96-11.15,9.92-22.3,15-33.74-19.85-7.78-38.8-13.27-58.4-16.55-29.71-4.96-59.54-6.41-88.66,2.24-41.6,12.36-76.91,35.39-106.3,67.28-11.63,12.62-20.93,26.87-24.7,43.91-3.79,17.17,.28,32.09,14.57,43.26,14.02,10.96,30.62,14.11,47.81,15.01,18.09,.95,35.95-.97,53.54-5.18,28.16-6.74,55.47-15.77,79.36-32.74,30.06-21.36,50.97-50.33,67.77-83.5M477.45,112.93c-8.06,18.28-13.64,37.31-14.42,57.29-1.39,35.96,3.28,71.12,16.87,104.72,6.68,16.51,15.53,31.63,29.19,43.57,16.72,14.6,38.94,15.33,56.26,1.66,13.87-10.94,22.7-25.51,29.68-41.35,10.17-23.08,14.98-47.48,17.66-72.44,3.8-35.3-1.15-68.98-16.96-100.99-11.14-22.56-25.32-43-41.95-61.77-4.9-5.54-10.39-10.56-15.78-16-25.28,25.08-45.96,52.56-60.55,85.32m-204.34,363.26c-20.25-7.53-41.23-11.73-62.67-14.02-28.18-3.01-55.85-1.54-82.7,8.36-26.54,9.78-50.35,24.26-72.02,42.26-8.8,7.3-17.05,15.26-25.64,23,1.28,1.63,1.91,2.62,2.71,3.43,21.49,21.69,45.55,39.89,72.92,53.57,22.6,11.3,46.33,18.64,71.77,19.14,28.48,.56,56.51-2.75,83.76-11.31,21.32-6.7,41.32-15.89,57.16-32.37,18.6-19.36,18.49-44.44-.09-63.8-12.53-13.05-28.07-21.15-45.19-28.25m-25.94,148.39c-10.34,3.14-20.78,6-31.02,9.47-27.65,9.37-51.51,24.61-71.38,46.15-16.98,18.41-30.47,39.14-41.51,61.48-5.05,10.22-9.14,20.91-13.8,31.72,2.75,1.13,4.55,1.93,6.4,2.61,25.29,9.32,51.27,15.25,78.23,17.22,22.67,1.65,45.13,.54,66.65-6.64,38.22-12.74,71.48-33.84,99.29-63.15,12.16-12.81,21.91-27.19,26.75-44.49,5.71-20.38-1.36-39.39-19.95-49.48-8.18-4.44-17.47-7.61-26.64-9.3-24.29-4.48-48.41-1.73-73.02,4.42m763.45-55.51c13.09-9.91,25.75-20.29,36.9-32.67-1.65-1.79-2.84-3.17-4.13-4.44-22.68-22.43-48.02-41.13-76.97-54.7-19.94-9.35-40.87-15.47-62.94-16.23-30.67-1.06-60.85,2.55-90.1,12.22-20.94,6.92-40.49,16.34-55.56,33.12-16.1,17.92-16.45,40.49-.96,58.94,9.95,11.86,22.64,20,36.54,26.4,25.26,11.65,51.99,17.24,79.59,19.39,17.5,1.36,34.94,1.63,52.24-1.9,31.45-6.41,59.14-20.9,85.38-40.12m-384.16,176.94c-7.73,18.91-7.14,38.41-3.83,58.01,4.57,27.07,14.93,52.04,27.9,76.07,12.7,23.54,29.48,43.4,51.29,59.05,25.22,18.09,53.21,30.15,82.85,38.69,6.32,1.82,12.81,3.07,19.27,4.6,.49-1.41,.76-2.01,.9-2.64,6.37-28.27,9.38-56.83,7.03-85.81-1.68-20.7-5.52-40.99-14.25-59.96-14.88-32.31-36.97-59.19-63.83-82.23-15.69-13.46-32.89-24.48-53.27-29.49-24.62-6.05-43.38,2.09-54.06,23.71m-291.45,13.41c-7.92,8.55-16.22,16.77-23.68,25.7-19.43,23.28-34.71,48.82-41.14,78.94-6.02,28.16-6.35,56.53-2.81,84.97,1.37,11.01,3.7,21.9,5.64,33.13,2.18-.31,3.48-.41,4.74-.68,29.23-6.22,56.84-16.78,82.51-32.04,18.71-11.12,35.71-24.53,49.02-42.02,18.87-24.8,32.13-52.47,40.89-82.31,6.55-22.32,9.75-44.99,4.67-68.02-3.26-14.74-10.57-27.14-25.3-33.2-14.59-6-29.12-3.52-43.34,1.85-19.34,7.3-35.48,19.53-51.18,33.68Z"/>
  <path class="cls-2" d="M951.12,702.75c16.4,21.9,28.68,45.59,38.17,70.81,1.1,2.93,.66,4.38-2.54,5.57-33.07,12.31-67.05,19.33-102.48,18.54-30.52-.68-58.47-9.84-84.76-24.95-23.54-13.52-45.32-29.21-63.12-49.92-9.29-10.8-17.21-22.48-21.52-36.23-8.66-27.64,2.76-49.74,30.29-58.9,19.03-6.33,38.54-7.06,58.24-4.71,25.76,3.07,50.43,10.17,74.37,20.19,30.25,12.66,53.81,33.31,73.35,59.59Z"/>
  <path class="cls-3" d="M206.39,276.53c27.72,1.65,52.24,11.51,75.63,24.88,22.1,12.63,42.56,27.35,59.57,46.44,10.7,12.01,20.13,24.91,24.52,40.71,7.22,25.99-2.48,45.63-27.46,55.87-14.61,5.99-30,7.43-45.56,7.02-33.82-.88-65.68-10-96.32-23.77-24.34-10.94-44.03-27.9-60.79-48.41-19.47-23.82-33.98-50.47-44.67-79.25-.45-1.2-.72-2.47-1.4-4.88,13.11-3.93,25.86-8.16,38.82-11.55,25.31-6.6,51.06-9.25,77.67-7.07Z"/>
  <path class="cls-2" d="M591.61,788.26c14.09,27.48,19.75,56.73,22.49,86.79,2.27,24.88,.15,49.22-8.04,72.89-9.19,26.56-23.27,50.43-40.93,72.17-6.91,8.51-14.62,16.38-21.9,24.59-1.1,1.24-1.85,2.79-3.3,5.03-7.94-8.52-15.05-15.5-21.4-23.11-17.69-21.2-32.54-44.18-42.89-69.95-10-24.9-13.38-50.66-11.5-77.33,2-28.42,6.97-56.13,18.58-82.34,6.93-15.66,15.51-30.23,29.43-40.86,18.42-14.06,38.42-13.5,56.11,1.44,9.95,8.41,17.28,18.83,23.36,30.68Z"/>
  <path class="cls-2" d="M435.5,355.59c-15.48,6.9-30.33,4.08-44.96-1.48-17.84-6.78-33.23-17.58-47.15-30.38-24.98-22.96-46.15-48.89-59.73-80.33-8.2-18.99-12-39.1-13.38-59.6-1.83-27.23,.61-54.17,6.57-80.82,.98-4.37,2.39-5.52,7.03-4.4,35.46,8.57,68.7,21.94,98.4,43.52,23.17,16.84,40.03,38.78,52.93,64.04,12.18,23.85,21.64,48.61,25.38,75.33,2.22,15.85,2.28,31.52-2.64,46.94-3.81,11.92-10.62,21.38-22.44,27.18Z"/>
  <path class="cls-2" d="M628.66,237.62c9.83-25.12,21.43-48.84,38.72-69.32,17.37-20.58,39.12-35.47,63.04-47.28,20.21-9.98,41.4-17.36,63.41-22.29,1.74-.39,3.51-.63,6.29-1.12,1.87,10.88,3.99,21.27,5.4,31.76,3.82,28.24,3.52,56.41-2.09,84.45-6.39,31.95-22.74,58.69-43.32,83.23-17.8,21.21-37.72,39.99-62.67,52.59-13.32,6.73-27.29,11.55-42.69,9.44-14.68-2-25.17-9.84-31.72-22.97-7.73-15.5-8.21-32.1-6.56-48.82,1.68-16.96,6.07-33.35,12.18-49.66Z"/>
  <path class="cls-2" d="M975.98,335.91c-16.65,32.83-37.56,61.8-67.62,83.16-23.88,16.98-51.2,26.01-79.36,32.74-17.59,4.21-35.45,6.13-53.54,5.18-17.19-.9-33.79-4.05-47.81-15.01-14.29-11.17-18.36-26.09-14.57-43.26,3.76-17.05,13.06-31.3,24.7-43.91,29.39-31.89,64.71-54.92,106.3-67.28,29.12-8.65,58.95-7.2,88.66-2.24,19.6,3.27,38.55,8.76,58.4,16.55-5.09,11.44-10.04,22.59-15.16,34.08Z"/>
  <path class="cls-2" d="M477.61,112.59c14.43-32.41,35.12-59.9,60.39-84.98,5.4,5.44,10.88,10.46,15.78,16,16.63,18.77,30.81,39.21,41.95,61.77,15.81,32.01,20.76,65.69,16.96,100.99-2.69,24.96-7.5,49.36-17.66,72.44-6.97,15.84-15.81,30.4-29.68,41.35-17.32,13.67-39.54,12.94-56.26-1.66-13.66-11.93-22.51-27.06-29.19-43.57-13.59-33.59-18.26-68.75-16.87-104.72,.77-19.98,6.35-39.01,14.58-57.63Z"/>
  <path class="cls-2" d="M273.46,476.34c16.76,6.95,32.3,15.05,44.83,28.1,18.58,19.36,18.69,44.44,.09,63.8-15.84,16.48-35.84,25.67-57.16,32.37-27.25,8.56-55.28,11.87-83.76,11.31-25.44-.5-49.16-7.84-71.77-19.14-27.37-13.68-51.43-31.88-72.92-53.57-.8-.81-1.43-1.79-2.71-3.43,8.59-7.74,16.84-15.69,25.64-23,21.68-18,45.49-32.47,72.02-42.26,26.86-9.9,54.52-11.38,82.7-8.36,21.44,2.29,42.42,6.5,63.03,14.16Z"/>
  <path class="cls-2" d="M247.56,624.45c24.21-6.02,48.34-8.77,72.62-4.29,9.17,1.69,18.46,4.86,26.64,9.3,18.59,10.09,25.66,29.1,19.95,49.48-4.85,17.3-14.6,31.68-26.75,44.49-27.8,29.31-61.06,50.41-99.29,63.15-21.52,7.17-43.98,8.29-66.65,6.64-26.95-1.96-52.94-7.9-78.23-17.22-1.85-.68-3.65-1.48-6.4-2.61,4.67-10.81,8.76-21.5,13.8-31.72,11.03-22.34,24.52-43.07,41.51-61.48,19.87-21.54,43.74-36.78,71.38-46.15,10.23-3.47,20.67-6.33,31.41-9.6Z"/>
  <path class="cls-2" d="M1010.33,569.29c-25.95,19.01-53.64,33.5-85.09,39.91-17.3,3.53-34.73,3.26-52.24,1.9-27.6-2.15-54.33-7.74-79.59-19.39-13.9-6.41-26.59-14.54-36.54-26.4-15.48-18.45-15.13-41.02,.96-58.94,15.07-16.78,34.62-26.2,55.56-33.12,29.25-9.66,59.43-13.28,90.1-12.22,22.07,.76,43,6.88,62.94,16.23,28.95,13.58,54.29,32.27,76.97,54.7,1.29,1.28,2.47,2.66,4.13,4.44-11.15,12.38-23.81,22.76-37.19,32.88Z"/>
  <path class="cls-2" d="M626.63,745.67c10.51-21.27,29.27-29.41,53.89-23.37,20.38,5.01,37.59,16.03,53.27,29.49,26.85,23.04,48.95,49.92,63.83,82.23,8.73,18.96,12.57,39.26,14.25,59.96,2.36,28.97-.66,57.53-7.03,85.81-.14,.63-.42,1.23-.9,2.64-6.46-1.53-12.95-2.78-19.27-4.6-29.64-8.53-57.63-20.59-82.85-38.69-21.81-15.65-38.58-35.51-51.29-59.05-12.97-24.03-23.34-49-27.9-76.07-3.31-19.6-3.89-39.1,4-58.35Z"/>
  <path class="cls-2" d="M335.28,759.2c15.44-13.91,31.58-26.14,50.91-33.45,14.22-5.37,28.75-7.85,43.34-1.85,14.73,6.06,22.04,18.46,25.3,33.2,5.09,23.03,1.88,45.7-4.67,68.02-8.76,29.85-22.02,57.51-40.89,82.31-13.3,17.49-30.3,30.89-49.02,42.02-25.67,15.26-53.27,25.82-82.51,32.04-1.26,.27-2.56,.37-4.74,.68-1.94-11.24-4.27-22.13-5.64-33.13-3.54-28.44-3.21-56.8,2.81-84.97,6.44-30.12,21.71-55.66,41.14-78.94,7.46-8.93,15.76-17.15,23.95-25.93Z"/>
  <circle class="cls-4" cx="539.9" cy="539.95" r="188.14"/>
</svg>