<?xml version="1.0" encoding="utf-8"?>
<!-- Generator: Adobe Illustrator 27.0.0, SVG Export Plug-In . SVG Version: 6.00 Build 0)  -->
<svg version="1.1" id="Layer_1" xmlns="http://www.w3.org/2000/svg" xmlns:xlink="http://www.w3.org/1999/xlink" x="0px" y="0px"
	 viewBox="0 0 399 152" style="enable-background:new 0 0 399 152;" xml:space="preserve">
<style type="text/css">
	.st0{fill:#FFFFFF;}
</style>
<g transform="translate(0.000000,152.000000) scale(0.100000,-0.100000)">
	<path class="st0" d="M1911,1495c-157-50-176-273-29-344c150-72,311,58,269,216C2123,1470,2014,1528,1911,1495z"/>
	<path class="st0" d="M528,1248c-25-161-21-193,17-140c39,54,107,121,158,156c48,33,152,76,183,76c8,0,23-18,34-40
		c20-39,20-53,18-599c-3-549-3-560-24-588c-11-15-35-37-52-48c-66-42-51-45,263-45c248,0,295,2,295,14c0,8-15,23-32,34
		c-18,12-42,36-53,54c-19,32-20,53-23,578l-3,545l23,45c21,42,26,45,58,42c63-4,160-61,236-136c39-39,78-82,87-96c12-17,20-21,27-14
		c10,10-8,148-36,287l-6,27h-573H552L528,1248z"/>
	<path class="st0" d="M2890,1072c-63-21-114-47-149-73c-35-28-41-24-41,29v48l-227-26c-246-27-265-35-200-75c17-11,41-38,52-60
		c19-37,20-63,23-380c3-372,0-404-50-451c-27-27-30-28-56-14c-15,8-37,35-49,60c-23,44-23,47-23,498v453l-32-5c-18-3-107-10-198-16
		c-268-17-285-22-218-65c17-11,41-33,52-48c20-27,21-42,24-390c2-199,0-376-3-394c-7-38-49-91-82-104c-12-5-23-15-23-24
		c0-13,66-15,570-15s570,2,570,15c0,9-10,19-22,24c-30,12-64,49-79,86c-7,20-14,155-19,400c-8,419-14,384,78,411c90,27,155-6,189-94
		c16-42,18-82,18-377c0-324,0-331-22-366c-13-19-38-44-58-55c-76-40-54-44,265-44c320,0,340,3,262,45c-23,12-45,35-57,60
		c-19,37-20,66-25,400l-5,360l-27,47c-32,54-87,100-155,130S2965,1097,2890,1072z"/>
	<path class="st0" d="M315,872C194,813,75,754,50,740L5,717l270-134c149-73,273-133,278-133c4,0,7,46,7,103v102l-64-3
		c-45-3-93,4-167,23c-120,32-142,41-119,49c84,31,228,68,283,73l67,6v88c0,65-3,89-12,88C541,979,436,931,315,872z"/>
	<path class="st0" d="M3440,892v-89l68-6c65-6,268-60,285-77c5-4-15-15-45-23c-135-39-185-48-245-45l-63,3V553c0-57,3-103,8-103
		c4,0,129,61,277,134l270,133l-255,126c-140,69-265,128-277,132C3440,981,3440,980,3440,892z"/>
</g>
</svg>
