<?xml version="1.0" standalone="no"?>
<!DOCTYPE svg PUBLIC "-//W3C//DTD SVG 20010904//EN"
 "http://www.w3.org/TR/2001/REC-SVG-20010904/DTD/svg10.dtd">
<svg version="1.0" xmlns="http://www.w3.org/2000/svg"
 width="399.000000pt" height="152.000000pt" viewBox="0 0 399.000000 152.000000"
 preserveAspectRatio="xMidYMid meet">

<g transform="translate(0.000000,152.000000) scale(0.100000,-0.100000)"
fill="#000000" stroke="none">
<path d="M1911 1495 c-157 -50 -176 -273 -29 -344 150 -72 311 58 269 216 -28
103 -137 161 -240 128z"/>
<path d="M528 1248 c-25 -161 -21 -193 17 -140 39 54 107 121 158 156 48 33
152 76 183 76 8 0 23 -18 34 -40 20 -39 20 -53 18 -599 -3 -549 -3 -560 -24
-588 -11 -15 -35 -37 -52 -48 -66 -42 -51 -45 263 -45 248 0 295 2 295 14 0 8
-15 23 -32 34 -18 12 -42 36 -53 54 -19 32 -20 53 -23 578 l-3 545 23 45 c21
42 26 45 58 42 63 -4 160 -61 236 -136 39 -39 78 -82 87 -96 12 -17 20 -21 27
-14 10 10 -8 148 -36 287 l-6 27 -573 0 -573 0 -24 -152z"/>
<path d="M2890 1072 c-63 -21 -114 -47 -149 -73 -35 -28 -41 -24 -41 29 l0 48
-227 -26 c-246 -27 -265 -35 -200 -75 17 -11 41 -38 52 -60 19 -37 20 -63 23
-380 3 -372 0 -404 -50 -451 -27 -27 -30 -28 -56 -14 -15 8 -37 35 -49 60 -23
44 -23 47 -23 498 l0 453 -32 -5 c-18 -3 -107 -10 -198 -16 -268 -17 -285 -22
-218 -65 17 -11 41 -33 52 -48 20 -27 21 -42 24 -390 2 -199 0 -376 -3 -394
-7 -38 -49 -91 -82 -104 -12 -5 -23 -15 -23 -24 0 -13 66 -15 570 -15 504 0
570 2 570 15 0 9 -10 19 -22 24 -30 12 -64 49 -79 86 -7 20 -14 155 -19 400
-8 419 -14 384 78 411 90 27 155 -6 189 -94 16 -42 18 -82 18 -377 0 -324 0
-331 -22 -366 -13 -19 -38 -44 -58 -55 -76 -40 -54 -44 265 -44 320 0 340 3
262 45 -23 12 -45 35 -57 60 -19 37 -20 66 -25 400 l-5 360 -27 47 c-32 54
-87 100 -155 130 -68 30 -208 35 -283 10z"/>
<path d="M315 872 c-121 -59 -240 -118 -265 -132 l-45 -23 270 -134 c149 -73
273 -133 278 -133 4 0 7 46 7 103 l0 102 -64 -3 c-45 -3 -93 4 -167 23 -120
32 -142 41 -119 49 84 31 228 68 283 73 l67 6 0 88 c0 65 -3 89 -12 88 -7 0
-112 -48 -233 -107z"/>
<path d="M3440 892 l0 -89 68 -6 c65 -6 268 -60 285 -77 5 -4 -15 -15 -45 -23
-135 -39 -185 -48 -245 -45 l-63 3 0 -102 c0 -57 3 -103 8 -103 4 0 129 61
277 134 l270 133 -255 126 c-140 69 -265 128 -277 132 -23 6 -23 5 -23 -83z"/>
</g>
</svg>
